{"asset":{"version":"2.0","generator":"taskcaster-ar-primitive"},"scene":0,"scenes":[{"nodes":[0]}],"nodes":[{"mesh":0,"name":"primitive"}],"meshes":[{"primitives":[{"attributes":{"POSITION":0,"NORMAL":1},"indices":2,"material":0,"mode":4}]}],"materials":[{"name":"solid","pbrMetallicRoughness":{"baseColorFactor":[0.9,0.2,0.3,1.0],"metallicFactor":0.0,"roughnessFactor":0.5},"doubleSided":true}],"buffers":[{"byteLength":10920,"uri":"data:application/octet-stream;base64,"}],"bufferViews":[{"buffer":0,"byteOffset":0,"byteLength":3780,"target":34962},{"buffer":0,"byteOffset":3780,"byteLength":3780,"target":34962},{"buffer":0,"byteOffset":7560,"byteLength":3360,"target":34963}],"accessors":[{"bufferView":0,"componentType":5126,"count":315,"type":"VEC3","min":[-0.12,-0.12,-0.12],"max":[0.12,0.12,0.12]},{"bufferView":1,"componentType":5126,"count":315,"type":"VEC3"},{"bufferView":2,"componentType":5123,"count":1680,"type":"SCALAR"}]}